Coordinates
version=1
nRows=14
nColumns=36
inDegrees=yes

Units are S.I. units (second, meters, Newtons, ...)
If the header above contains a line with 'inDegrees', this indicates whether rotational values are in degrees (yes) or radians (no).

endheader
time	pelvis_tilt	pelvis_list	pelvis_rotation	pelvis_tx	pelvis_ty	pelvis_tz	hip_flexion_r	hip_adduction_r	hip_rotation_r	knee_angle_r	knee_angle_r_beta	ankle_angle_r	subtalar_angle_r	mtp_angle_r	hip_flexion_l	hip_adduction_l	hip_rotation_l	knee_angle_l	knee_angle_l_beta	ankle_angle_l	subtalar_angle_l	mtp_angle_l	lumbar_extension	lumbar_bending	lumbar_rotation	arm_flex_r	arm_add_r	arm_rot_r	elbow_flex_r	pro_sup_r	arm_flex_l	arm_add_l	arm_rot_l	elbow_flex_l	pro_sup_l
      2.43333330	    -17.87321431	     25.15283219	    -25.12203636	      1.02007590	      0.92549626	      0.22839047	    107.38237541	    -29.94423738	     -9.33423738	     69.69177756	      1.21635098	     -4.66855301	    -27.60738082	     -7.49999987	     30.96020100	     18.62574073	     39.82238009	      6.40455951	      0.11178065	    -41.40852116	     18.06535547	     -7.49999987	     22.53398410	     -2.57569380	     62.91889124	    -43.34961808	    -63.54700487	     -5.46691990	    132.95898373	     97.69487528	     -7.59282764	      9.20282584	     95.00961755	     90.88962605	    107.82406339
      2.45000000	    -12.29440530	     28.78493696	    -26.73540821	      1.04695265	      0.90544723	      0.23618249	    113.74042634	    -29.53967301	      3.67069362	     77.46976887	      1.35210254	     -3.32444687	    -27.89806045	     -7.49999987	     28.54212443	     25.88133894	     39.84146335	     10.48612800	      0.18301746	    -34.88403579	     -2.96642494	     -7.49999987	     18.00826615	     -8.03686267	     62.76451072	    -41.26761281	    -66.44218573	      5.46485422	    131.93196502	    101.23566387	     -7.56823977	      9.01519811	     97.23677897	     88.18599775	    107.95487494
      2.46666670	     -9.11722280	     29.95266398	    -29.22561973	      1.07229711	      0.89362471	      0.24073517	    115.53957245	    -27.83456378	     10.34627360	     83.05973911	      1.44966592	     -1.47362662	    -26.96118939	     -7.49999987	     26.63554564	     29.14738525	     39.85640916	     13.08715939	      0.22841402	    -32.32872699	    -22.02324574	     -7.49999987	     15.63086339	     -7.90466851	     63.75953447	    -39.36839509	    -67.98815205	     16.42008540	    129.49217404	    105.04674483	     -8.64766581	      9.89631848	     99.96287221	     84.40313091	    109.03330134
      2.48333330	     -9.21004818	     30.13117302	    -30.44715300	      1.07787432	      0.89214809	      0.24572279	    116.00829249	    -26.36412820	     12.47047480	     85.97108516	      1.50047850	      0.09011483	    -26.37292811	     -7.49999987	     26.67921655	     29.71743576	     39.85238861	     14.66984195	      0.25603704	    -31.72658902	    -32.64143863	     -7.49999987	     14.78247314	     -5.45230112	     65.40907299	    -35.36798442	    -68.42394398	     30.75425739	    124.70488465	    107.57662431	     -8.26505129	     11.56426722	    104.18139119	     79.71655219	    108.94197089
      2.50000000	    -12.12323535	     30.49720598	    -30.06625962	      1.09121040	      0.87625191	      0.24308964	    118.25183303	    -25.38290715	     13.29799746	     87.94764460	      1.53497597	      1.66079659	    -25.44081639	     -7.49999987	     29.57530101	     29.84291917	     39.84286899	     17.63286268	      0.30775151	    -29.07942727	    -34.13388413	     -7.49999987	     15.77725648	     -1.81965751	     66.84708094	    -33.73217439	    -68.39533157	     40.57841017	    120.22879750	    109.36739270	     -8.19097305	     13.12615261	    108.58424549	     75.60241549	    110.05693138
      2.51666670	    -14.84640112	     29.99014434	    -31.22281798	      1.10212733	      0.85179915	      0.23877610	    119.36580186	    -23.48756332	     12.34345681	     89.54814999	      1.56291006	      2.91534728	    -24.88341905	     -7.49999987	     33.33753841	     29.89264740	     39.84632066	     23.44050223	      0.40911394	    -24.79828291	    -34.50596494	     -7.49999987	     15.44373945	      3.91205454	     69.94889314	    -35.94710368	    -69.65911348	     45.75608261	    118.85429058	    107.88878361	     -8.84125201	     15.50797053	    113.13466204	     73.45770065	    107.93373726
      2.53333330	    -16.57216362	     29.16279575	    -32.14237829	      1.10124890	      0.85791990	      0.24278935	    119.57212719	    -22.86376020	     10.52432493	     90.65164617	      1.58216970	      5.45861796	    -23.33983126	     -7.49999987	     35.55599773	     29.90448175	     39.85141543	     28.29425360	      0.49382788	    -21.84634540	    -34.60605542	     -7.49999987	     12.01464200	      8.45683542	     72.83769525	    -40.15826241	    -71.95158726	     47.82644102	    120.19750382	    110.73003576	     -8.32598396	     19.04803370	    119.60155498	     70.29923398	    111.94881457
      2.55000000	    -17.29823576	     29.21997147	    -32.11016424	      1.10054428	      0.86776156	      0.25432056	    119.61520858	    -23.15595620	      9.55197882	     91.39148381	      1.59508230	      8.61847975	    -21.21744401	     -7.49999987	     35.71476927	     29.90310309	     39.84546396	     29.10450153	      0.50796938	    -22.68448474	    -34.65207709	     -7.49999987	      8.38344538	      9.33286215	     74.41736012	    -43.98460424	    -72.39685436	     45.06604551	    117.77082925	    110.71594488	     -7.10855058	     22.18373135	    125.18538055	     66.17241445	    112.69895738
      2.56666670	    -17.87223873	     28.84081253	    -33.55366837	      1.13098526	      0.85314788	      0.25784668	    119.65270497	    -22.82156366	      8.61365481	     93.19140688	      1.62649688	     10.67663218	    -19.55696017	     -7.49999987	     36.15946988	     29.89596542	     39.86242569	     31.88930955	      0.55657345	    -21.72371368	    -34.68425029	     -7.49999987	      4.94276567	     12.02582472	     80.79826545	    -60.76435358	    -67.96095926	     31.43043964	    115.00340428	    110.20968695	     -8.31860181	     24.32131785	    133.42671240	     63.67312053	    113.03364433
      2.58333330	    -18.89403618	     28.10631514	    -34.08131055	      1.13229672	      0.84914947	      0.25322599	    119.66831553	    -23.12364735	      7.49610415	     94.66376062	      1.65219431	     12.73527380	    -17.79241645	     -7.49999987	     37.05919072	     29.88890371	     39.87208640	     34.99286500	      0.61074071	    -20.30089896	    -34.69906608	     -7.49999987	      0.76059154	     14.52224321	     84.76108140	    -70.16084291	    -67.20622403	     26.06636214	    115.38714926	    108.82661604	     -9.19334731	     27.34640341	    139.46222288	     62.94612910	    113.44635020
      2.60000000	    -18.97682691	     27.62571664	    -34.17021981	      1.14109201	      0.85621926	      0.25680865	    119.62905018	    -23.85694486	      7.49886794	     96.07349069	      1.67679874	     14.38683416	    -16.29396161	     -7.49999987	     36.43880327	     29.87764333	     39.87282842	     35.72227960	      0.62347140	    -20.74003384	    -34.70248695	     -7.49999987	     -4.19030548	     14.71499851	     85.89319487	    -79.82163860	    -66.55101193	     16.23756213	    115.24129559	    108.83737176	     -8.09091116	     31.58993022	    143.50598841	     59.90997595	    114.31925898
      2.61666670	    -18.51679728	     28.01294162	    -33.78296128	      1.14662142	      0.85997554	      0.26946630	    119.53529294	    -24.57599128	      8.24574781	     97.38225318	      1.69964095	     16.24307891	    -14.83218250	     -7.49999987	     34.87192674	     29.86266155	     39.86641801	     33.86011938	      0.59097057	    -22.19930720	    -34.69881473	     -7.49999987	     -8.27017726	     12.33012671	     85.25293231	    -83.78165568	    -67.49374666	     13.63796037	    114.45952092	    105.98498243	     -5.88152398	     35.20079624	    146.48225387	     56.85483137	    113.77821016
      2.63333330	    -17.94698905	     28.59612161	    -33.42880707	      1.15374974	      0.86094546	      0.27757281	    119.45301989	    -25.06402460	      9.28798207	     98.49650713	      1.71908835	     18.33611334	    -13.31080400	     -7.49999987	     33.28153998	     29.84837497	     39.85732112	     31.82649325	      0.55547710	    -24.09162319	    -34.69352068	     -7.49999987	    -11.15666676	      9.00628666	     83.35221565	    -85.16786542	    -69.00323359	     12.10411828	    111.28136865	    105.29421847	     -3.46956339	     38.07345838	    148.45992395	     52.67196865	    113.73318990
      2.65000000	    -15.14200966	     29.15304067	    -33.21411616	      1.14890649	      0.86759801	      0.29518145	    117.86907317	    -25.17445195	     11.45899711	     99.55170783	      1.73750508	     20.37916975	    -12.52428429	     -7.49999987	     29.20566983	     29.82456811	     39.76241676	     27.48910411	      0.47977538	    -27.65141686	    -34.56462931	     -7.49999987	    -18.72845641	      3.30307628	     40.61042153	     95.23367875	    -47.32681266	    183.45416897	    112.95250358	     84.66689061	     13.49792187	     37.86722985	    109.86009360	     42.98422999	    111.64538772
